#!OML:ASF E:\Steps\Project 1\Capture day 1\Session 2\Subject.ASF
:FULLY-SPECIFIED
:DEGREES
557
root 12.3392 18.1037 17.2999 -150.562 -0.418449 176.309
lowerback -22.0757 -2.32033 -8.43036
upperback 1.42173 -0.858865 -1.22402
thorax 14.2404 -1.05701 3.10423
lowerneck 4.37155 -2.21602 -0.229145
upperneck 3.48554 -2.84788 2.78513
head 0.390931 -1.35573 0.912489
rclavicle -1.59028e-015 -7.15625e-015
rhumerus -41.7742 -12.4337 -77.2055
rradius 29.0655
rwrist -2.96387
rhand -8.04587 -51.1869
rfingers 7.12502
rthumb 17.8647 -80.3864
lclavicle -1.59028e-015 -7.15625e-015
lhumerus -36.6976 5.33446 72.6613
lradius 25.8319
lwrist -3.39105
lhand -20.4482 -11.8191
lfingers 7.12502
lthumb 5.9071 18.0785
rfemur 150.539 -181.998 -158.766
rtibia 9.45092
rfoot -17.098 -3.15182
rtoes -18.7024
lfemur -30.5976 -9.14969 -21.6439
ltibia 11.7321
lfoot -5.89659 -4.56745
ltoes -35.1754
558
root 12.338 18.1045 17.287 -150.751 -0.408092 176.286
lowerback -22.0447 -2.35805 -8.41274
upperback 1.34092 -0.931493 -1.16859
thorax 14.1353 -1.0866 3.1353
lowerneck 4.30632 -2.13351 -0.385293
upperneck 3.2108 -2.75354 2.82339
head 0.318718 -1.31859 0.950579
rclavicle -1.98785e-015 6.75868e-015
rhumerus -41.742 -12.6687 -76.9801
rradius 29.0972
rwrist -2.70019
rhand -7.82416 -51.3891
rfingers 7.12502
rthumb 18.078 -80.569
lclavicle -1.98785e-015 6.75868e-015
lhumerus -36.714 5.59034 72.7127
lradius 25.736
lwrist -3.51278
lhand -20.6782 -11.6982
lfingers 7.12502
lthumb 5.68507 18.2056
rfemur 150.867 -182.244 -158.891
rtibia 9.30537
rfoot -18.1227 -3.29376
rtoes -14.0334
lfemur -30.3811 -8.9758 -21.7615
ltibia 11.8075
lfoot -6.68132 -4.81557
ltoes -38.9084
559
root 12.3383 18.1034 17.27 -151.009 -0.453543 176.226
lowerback -22.0721 -2.42102 -8.41896
upperback 1.32502 -1.01737 -1.11948
thorax 14.1442 -1.12797 3.16567
lowerneck 4.3116 -2.11869 -0.505817
upperneck 2.86046 -2.74634 2.90578
head 0.213369 -1.32566 0.998719
rclavicle 1.51076e-014 -8.74653e-015
rhumerus -41.5522 -12.9569 -76.7776
rradius 29.0216
rwrist -2.53787
rhand -7.51372 -50.9861
rfingers 7.12502
rthumb 18.3767 -80.1381
lclavicle 1.51076e-014 -8.74653e-015
lhumerus -36.6769 5.57313 72.86
lradius 25.6178
lwrist -3.50138
lhand -21.0406 -11.3486
lfingers 7.12502
lthumb 5.33516 18.5643
rfemur 151.331 -182.43 -159.024
rtibia 9.1029
rfoot -17.1068 -3.59299
rtoes -17.3383
lfemur -30.022 -8.95597 -21.8773
ltibia 11.7946
lfoot -6.18152 -4.82995
ltoes -35.5549
560
root 12.3356 18.1001 17.2514 -151.233 -0.437279 176.224
lowerback -22.1745 -2.40851 -8.34293
upperback 1.29212 -1.01588 -1.10387
thorax 14.1621 -1.12268 3.13981
lowerneck 4.29788 -2.24064 -0.395437
upperneck 2.67555 -2.90785 2.79162
head 0.158879 -1.41057 0.947325
rclavicle 2.36554e-014 1.15295e-014
rhumerus -41.4021 -12.9599 -76.8294
rradius 29.2058
rwrist -2.95598
rhand -7.75302 -50.314
rfingers 7.12502
rthumb 18.1465 -79.4875
lclavicle 2.36554e-014 1.15295e-014
lhumerus -36.555 5.41187 73.018
lradius 25.4363
lwrist -3.3201
lhand -21.2987 -11.3404
lfingers 7.12502
lthumb 5.08591 18.5786
rfemur 151.699 -182.433 -159.049
rtibia 9.01071
rfoot -18.1844 -3.5315
rtoes -13.8856
lfemur -29.6886 -9.07572 -21.8962
ltibia 11.7657
lfoot -6.77657 -4.71404
ltoes -39.1608
561
root 12.3341 18.0981 17.2402 -151.274 -0.389662 176.22
lowerback -22.3033 -2.39993 -8.31454
upperback 1.17647 -1.01747 -1.06881
thorax 14.0983 -1.12097 3.16328
lowerneck 4.12636 -2.40536 -0.450307
upperneck 2.54361 -3.13815 2.82889
head 0.152053 -1.53048 0.968992
rclavicle -1.25234e-014 -2.10712e-014
rhumerus -41.2987 -12.9367 -76.8881
rradius 29.4315
rwrist -3.35137
rhand -8.43587 -50.0249
rfingers 7.12502
rthumb 17.4894 -79.2582
lclavicle -1.25234e-014 -2.10712e-014
lhumerus -36.4268 5.55203 73.1072
lradius 25.2467
lwrist -3.42946
lhand -21.3068 -11.5823
lfingers 7.12502
lthumb 5.07817 18.3368
rfemur 151.771 -182.456 -159.046
rtibia 9.04729
rfoot -17.2416 -3.63751
rtoes -18.8322
lfemur -29.6215 -8.98707 -21.9538
ltibia 11.8284
lfoot -6.35056 -4.76934
ltoes -35.1994
562
root 12.3311 18.0988 17.2251 -151.419 -0.337028 176.221
lowerback -22.3778 -2.36826 -8.27808
upperback 1.08716 -0.991594 -1.04097
thorax 14.0309 -1.10554 3.18391
lowerneck 3.87433 -2.20497 -0.448236
upperneck 2.69419 -2.875 2.55899
head 0.230577 -1.39655 0.878056
rclavicle -5.96354e-016 7.95139e-015
rhumerus -41.1976 -13.2856 -76.7026
rradius 29.287
rwrist -3.24152
rhand -8.77994 -50.3383
rfingers 7.12502
rthumb 17.1583 -79.6007
lclavicle -5.96354e-016 7.95139e-015
lhumerus -36.3819 5.61203 73.2099
lradius 25.1701
lwrist -3.61441
lhand -21.0544 -11.6929
lfingers 7.12502
lthumb 5.32181 18.2203
rfemur 151.986 -182.511 -159.084
rtibia 9.02947
rfoot -18.2496 -3.5924
rtoes -14.7234
lfemur -29.3669 -8.96473 -22.0024
ltibia 11.7704
lfoot -6.89248 -4.83483
ltoes -37.8309
563
root 12.3276 18.0968 17.209 -151.565 -0.257044 176.21
lowerback -22.5117 -2.33417 -8.25099
upperback 1.01997 -0.950924 -1.02749
thorax 14.0222 -1.08602 3.19692
lowerneck 3.77786 -2.25747 -0.380731
upperneck 2.50756 -2.9479 2.48488
head 0.188535 -1.43724 0.844502
rclavicle 6.95746e-015 2.66371e-014
rhumerus -41.0198 -13.596 -76.5331
rradius 29.1261
rwrist -3.09919
rhand -8.63816 -50.8746
rfingers 7.12502
rthumb 17.2947 -80.125
lclavicle 6.95746e-015 2.66371e-014
lhumerus -36.3312 5.56803 73.3553
lradius 25.1884
lwrist -3.54001
lhand -20.8431 -11.6766
lfingers 7.12502
lthumb 5.52585 18.2314
rfemur 152.22 -182.489 -159.116
rtibia 8.99102
rfoot -17.3498 -3.59478
rtoes -17.5674
lfemur -29.106 -8.94197 -22.0773
ltibia 11.7149
lfoot -6.43118 -4.75364
ltoes -34.4541
564
root 12.3235 18.0921 17.1947 -151.607 -0.211148 176.234
lowerback -22.8266 -2.32034 -8.1273
upperback 0.999833 -0.938727 -1.03722
thorax 14.1744 -1.0773 3.1144
lowerneck 3.10227 -2.09452 0.013407
upperneck 3.28577 -2.71626 1.74416
head 0.515168 -1.30517 0.537769
rclavicle 1.19271e-015 2.3059e-014
rhumerus -40.768 -13.5689 -76.6853
rradius 29.3471
rwrist -3.30367
rhand -8.38809 -51.0223
rfingers 7.12502
rthumb 17.5354 -80.2515
lclavicle 1.19271e-015 2.3059e-014
lhumerus -36.0234 5.80694 73.3871
lradius 25.053
lwrist -3.68008
lhand -20.7697 -11.7876
lfingers 7.12502
lthumb 5.59666 18.1185
rfemur 152.326 -182.35 -159.043
rtibia 9.00145
rfoot -18.4633 -3.40277
rtoes -13.7423
lfemur -28.9865 -8.87465 -22.118
ltibia 11.7104
lfoot -6.97165 -4.84247
ltoes -37.5681
565
root 12.3186 18.0849 17.1822 -151.645 -0.202199 176.398
lowerback -23.0552 -2.26584 -7.84601
upperback 0.912085 -0.934535 -1.01579
thorax 14.1937 -1.05624 2.97826
lowerneck 3.04098 -2.18378 0.173785
upperneck 3.10371 -2.83506 1.57784
head 0.465825 -1.36823 0.461516
rclavicle -2.78299e-015 5.64548e-014
rhumerus -40.7245 -13.37 -76.9221
rradius 29.7834
rwrist -3.67215
rhand -8.17712 -50.8723
rfingers 7.12502
rthumb 17.7384 -80.0832
lclavicle -2.78299e-015 5.64548e-014
lhumerus -35.7951 6.01921 73.4044
lradius 24.9297
lwrist -3.97549
lhand -20.5528 -11.858
lfingers 7.12502
lthumb 5.80612 18.0425
rfemur 152.435 -182.225 -158.799
rtibia 8.98052
rfoot -17.5339 -3.24442
rtoes -17.0051
lfemur -28.8518 -8.78561 -22.0004
ltibia 11.6629
lfoot -6.61402 -4.93471
ltoes -34.184
566
root 12.3113 18.0787 17.1711 -151.78 -0.25399 176.539
lowerback -23.2162 -2.21482 -7.56429
upperback 0.875416 -0.935208 -0.993303
thorax 14.2359 -1.03733 2.84168
lowerneck 3.29141 -2.26455 0.0298253
upperneck 2.47803 -2.95455 1.95389
head 0.244757 -1.44035 0.607153
rclavicle -7.45443e-015 -4.17448e-014
rhumerus -40.5776 -13.3972 -77.0501
rradius 30.0045
rwrist -3.77022
rhand -8.20036 -50.6649
rfingers 7.12502
rthumb 17.716 -79.8779
lclavicle -7.45443e-015 -4.17448e-014
lhumerus -35.6455 5.98703 73.5268
lradius 25.0487
lwrist -3.93192
lhand -20.2795 -11.4829
lfingers 7.12502
lthumb 6.07 18.4101
rfemur 152.69 -182.012 -158.571
rtibia 8.87604
rfoot -18.5316 -2.87457
rtoes -13.3076
lfemur -28.5711 -8.82583 -21.893
ltibia 11.5276
lfoot -7.17113 -4.95035
ltoes -37.3986
